<svg width="512" height="512" viewBox="0 0 512 512" fill="none" xmlns="http://www.w3.org/2000/svg" style="color: white">
    <rect width="512" height="512" rx="64" fill="#2563eb"/>

    <g transform="translate(25, 125) scale(0.95)">
        <path d="M0 130H40C60 130 65 100 80 70C95 40 110 40 125 130C140 220 155 220 170 130C185 40 200 40 215 130C230 220 235 190 255 130H290"
              stroke="currentColor" stroke-width="20" stroke-linecap="round" stroke-linejoin="round"/>
        <path d="M80 130C95 90 110 90 125 130C140 170 155 170 170 130C185 90 200 90 215 130"
              stroke="currentColor" stroke-width="12" stroke-opacity="0.5" stroke-linecap="round" stroke-linejoin="round"/>
        <g transform="translate(300, 0)">
            <path d="M20 20 L180 130 L20 240 Z" stroke="currentColor" stroke-width="6" fill="none"/>
            <path d="M20 20 L20 240 M20 75 L100 75 M20 130 L140 130 M20 185 L100 185" stroke="currentColor" stroke-width="4" stroke-opacity="0.3"/>
            <path d="M20 20 L100 75 L20 130 L100 185 L20 240" stroke="currentColor" stroke-width="5" fill="none"/>
            <path d="M100 75 L180 130 L100 185" stroke="currentColor" stroke-width="5" fill="none"/>
            <circle cx="20" cy="20" r="10" fill="currentColor"/>
            <circle cx="20" cy="75" r="10" fill="currentColor"/>
            <circle cx="20" cy="130" r="10" fill="currentColor"/>
            <circle cx="20" cy="185" r="10" fill="currentColor"/>
            <circle cx="20" cy="240" r="10" fill="currentColor"/>
            <circle cx="60" cy="47" r="9" fill="currentColor"/>
            <circle cx="60" cy="102" r="9" fill="currentColor"/>
            <circle cx="60" cy="158" r="9" fill="currentColor"/>
            <circle cx="60" cy="213" r="9" fill="currentColor"/>
            <circle cx="100" cy="75" r="10" fill="currentColor"/>
            <circle cx="100" cy="130" r="10" fill="currentColor"/>
            <circle cx="100" cy="185" r="10" fill="currentColor"/>
            <circle cx="140" cy="102" r="9" fill="currentColor"/>
            <circle cx="140" cy="158" r="9" fill="currentColor"/>
            <circle cx="180" cy="130" r="15" fill="currentColor"/>
        </g>
    </g>
</svg>
